<svg width="25" height="22" viewBox="0 0 25 22" fill="none" xmlns="http://www.w3.org/2000/svg">
<path d="M23.2143 0H1.78013C0.797991 0 0 0.708008 0 1.57715V20.2979C0 21.167 0.797991 21.875 1.78013 21.875H23.2143C24.1964 21.875 25 21.167 25 20.2979V1.57715C25 0.708008 24.1964 0 23.2143 0ZM7.5558 18.75H3.85045V8.31055H7.56138V18.75H7.5558ZM5.70312 6.88477C4.51451 6.88477 3.55469 6.04004 3.55469 5.00488C3.55469 3.96973 4.51451 3.125 5.70312 3.125C6.88616 3.125 7.85156 3.96973 7.85156 5.00488C7.85156 6.04492 6.89174 6.88477 5.70312 6.88477ZM21.4453 18.75H17.74V13.6719C17.74 12.4609 17.7121 10.9033 15.8147 10.9033C13.8839 10.9033 13.5882 12.2217 13.5882 13.584V18.75H9.88281V8.31055H13.4375V9.73633H13.4877C13.9844 8.91602 15.1953 8.05176 16.9978 8.05176C20.7478 8.05176 21.4453 10.2148 21.4453 13.0273V18.75Z" fill="white"/>
</svg>
