<svg width="25" height="22" viewBox="0 0 25 22" fill="none" xmlns="http://www.w3.org/2000/svg">
<path d="M22.3214 0H2.67857C1.19978 0 0 1.0498 0 2.34375V19.5312C0 20.8252 1.19978 21.875 2.67857 21.875H22.3214C23.8002 21.875 25 20.8252 25 19.5312V2.34375C25 1.0498 23.8002 0 22.3214 0ZM19.5926 7.75391C19.6038 7.89062 19.6038 8.03223 19.6038 8.16895C19.6038 12.4023 15.9208 17.2803 9.19085 17.2803C7.11495 17.2803 5.18973 16.7529 3.57143 15.8447C3.86719 15.874 4.15179 15.8838 4.45312 15.8838C6.16629 15.8838 7.73995 15.376 8.99554 14.5166C7.38839 14.4873 6.03795 13.5645 5.57478 12.2949C6.13839 12.3682 6.64621 12.3682 7.22656 12.2363C5.55246 11.9385 4.29688 10.6494 4.29688 9.0918V9.05273C4.78237 9.29199 5.35156 9.43848 5.94866 9.45801C5.44667 9.16584 5.03515 8.76947 4.75082 8.30427C4.4665 7.83908 4.31821 7.31953 4.3192 6.79199C4.3192 6.19629 4.49777 5.64941 4.81585 5.17578C6.6183 7.11914 9.32478 8.38867 12.3605 8.52539C11.8415 6.35254 13.6998 4.58984 15.9319 4.58984C16.9866 4.58984 17.9353 4.97559 18.6049 5.60059C19.4308 5.46387 20.2232 5.19531 20.9263 4.8291C20.6529 5.57129 20.0781 6.19629 19.3192 6.5918C20.0558 6.52344 20.7701 6.34277 21.4286 6.09375C20.9319 6.7334 20.3069 7.2998 19.5926 7.75391Z" fill="white"/>
</svg>
